<svg xmlns="http://www.w3.org/2000/svg" viewBox="0 0 24 24" width="16" height="16">
    <rect x="2" y="2" width="20" height="20" fill="#c7c7c7"/>
    <path d="M3 2v20h18V2H3zm16 18H5V4h14v16zM7 8h2v2H7V8zm0 4h2v2H7v-2zm0 4h2v2H7v-2zm4-8h2v2h-2V8zm0 4h2v2h-2v-2zm0 4h2v2h-2v-2zm4-8h2v2h-2V8zm0 4h2v2h-2v-2zm0 4h2v2h-2v-2z"/>
    <circle cx="12" cy="12" r="3" fill="#f0c" stroke="#000" stroke-width="1.5"/>
    <circle cx="10" cy="11" r="0.5" fill="#000"/>
    <circle cx="14" cy="11" r="0.5" fill="#000"/>
    <path d="M10 15s1 1 2 0" fill="none" stroke="#000" stroke-width="1.5"/>
    <circle cx="12" cy="13" r="0.5" fill="#000"/>
    <path d="M12,4 Q8,8 4,4" fill="none" stroke="#000" stroke-width="1.5"/>
</svg>
